<mxfile host="app.diagrams.net" modified="2024-07-01T12:51:51.552Z" agent="Mozilla/5.0 (X11; Linux x86_64; rv:127.0) Gecko/20100101 Firefox/127.0" version="24.4.4" etag="5xN5pOr_GIgpmSdmlT34" type="github">
  <diagram name="Page-1" id="-ifTIxoUpv2fot0Oa-qI">
    <mxGraphModel>
      <root>
        <mxCell id="0" />
        <mxCell id="1" parent="0" />
      </root>
    </mxGraphModel>
  </diagram>
</mxfile>
